Coordinates
version=1
nRows=14
nColumns=36
inDegrees=yes

Units are S.I. units (second, meters, Newtons, ...)
If the header above contains a line with 'inDegrees', this indicates whether rotational values are in degrees (yes) or radians (no).

endheader
time	pelvis_tilt	pelvis_list	pelvis_rotation	pelvis_tx	pelvis_ty	pelvis_tz	hip_flexion_r	hip_adduction_r	hip_rotation_r	knee_angle_r	knee_angle_r_beta	ankle_angle_r	subtalar_angle_r	mtp_angle_r	hip_flexion_l	hip_adduction_l	hip_rotation_l	knee_angle_l	knee_angle_l_beta	ankle_angle_l	subtalar_angle_l	mtp_angle_l	lumbar_extension	lumbar_bending	lumbar_rotation	arm_flex_r	arm_add_r	arm_rot_r	elbow_flex_r	pro_sup_r	arm_flex_l	arm_add_l	arm_rot_l	elbow_flex_l	pro_sup_l
      0.00000000	      3.73881792	      0.18869445	     -1.85062187	      1.17415065	      0.97706734	     -0.03946619	     34.74806964	      1.00250275	     10.40271248	     18.12541921	      0.31634824	     -5.88499936	    -17.42251698	     -6.05828598	      7.14619029	      7.38189673	     -0.07071164	     20.03465983	      0.34967078	     13.37085174	    -11.27033865	     -6.05828598	    -19.36255774	     -5.56473989	      0.84310441	     43.40932843	      7.10603127	     59.51495015	    111.43899587	     86.23708098	     55.46336923	     -8.62489920	     69.41378324	    129.13524846	     70.24809279
      0.01666670	      3.32934002	     -1.23324808	      0.77916579	      1.17462729	      0.97063919	     -0.03959341	     33.99537474	      1.38601194	      9.53958758	     12.75390663	      0.22259766	     -1.25103260	    -10.05430768	     -6.47078987	      9.36376499	      5.62850122	     -1.46010863	     24.04670224	      0.41969413	     15.39984349	    -11.34673887	     -6.47078987	    -20.43048132	     -3.94747009	      0.65821811	     46.13416503	      4.78290119	     67.00188446	    118.17599374	     96.93277716	     57.89948735	     -8.20126906	     65.67347977	    132.31361629	     99.56708796
      0.03333330	      3.88063366	     -1.31548490	      0.62516927	      1.17510675	      0.96492994	     -0.03697797	     33.36662105	      1.38965986	      6.37735690	      9.86270730	      0.17213672	      1.34733459	     -5.42658625	     -6.66764559	     11.37638921	      5.22225259	     -3.22626762	     28.49159418	      0.49727213	     16.36077100	    -14.61649326	     -6.66764559	    -20.68764386	     -3.68435681	     -0.13198131	     46.76723391	      6.56686081	     66.51639304	    118.34303077	     98.43313359	     57.68559248	    -10.29569250	     64.76225242	    132.42791151	    105.04601639
      0.05000000	      4.52610076	     -1.73754874	      1.55475491	      1.16904659	      0.95796790	     -0.04185816	     34.31282849	      1.02617319	      3.16377443	     11.68210146	      0.20389113	      5.93985487	     -1.14127229	     -6.69461518	     13.96251773	      4.89966130	     -3.35411384	     33.47774448	      0.58429687	     19.90533871	    -13.71167560	     -6.69461518	    -21.41521996	     -2.90592697	     -1.20965774	     48.63729484	      7.14706613	     66.24478975	    119.17126454	     98.41723342	     59.86560544	    -10.40099137	     64.44118404	    131.62926634	    105.21251980
      0.06666670	      5.55297234	     -1.56673995	      1.72806035	      1.16799039	      0.95354677	     -0.04201131	     35.79288734	      0.52538849	      1.96651112	     15.19324880	      0.26517222	      7.35388199	      0.20472509	     -6.70346266	     15.80023622	      5.27647604	     -3.89226699	     37.80341598	      0.65979408	     22.37664062	    -14.33796138	     -6.70346266	    -22.97723930	     -3.02716576	     -1.50835166	     50.31971663	      7.64756989	     65.74484715	    119.37713825	     98.30100867	     61.99659859	     -9.96482987	     63.78896643	    131.05252677	    105.17169877
      0.08333330	      6.17194997	     -0.83794327	      2.19339293	      1.16740865	      0.94839784	     -0.04275977	     37.71928452	     -0.64683044	      1.39764972	     18.62484747	      0.32506491	      6.92366185	      1.52888854	     -6.71268533	     17.51149807	      6.32593749	     -4.13590639	     41.01572884	      0.71585951	     24.71547661	    -14.27382262	     -6.71268533	    -24.30729563	     -3.72733449	     -2.13459124	     51.41244333	      7.98191147	     65.55065619	    119.81512212	     98.10090292	     64.10447038	     -9.41768796	     63.72123381	    130.72553956	    105.05004108
      0.10000000	      6.14264858	      0.53012521	      2.54354077	      1.16624020	      0.94034166	     -0.04265113	     40.35445305	     -2.23478865	      2.13239150	     21.48334553	      0.37495511	      4.82640947	      1.56262129	     -6.75097587	     19.50085554	      7.80299712	     -4.84222737	     43.51312065	      0.75944722	     26.89597930	    -13.44771043	     -6.75097587	    -25.00530619	     -5.50763516	     -2.25837771	     51.65908796	      7.76236507	     65.34667487	    120.73213668	     97.04894613	     66.56389296	     -8.45449984	     65.61261172	    129.92614880	    104.16159642
      0.11666670	      6.74278755	      1.88966656	      2.97169227	      1.16428911	      0.93138630	     -0.04163388	     41.97163327	     -3.67191962	      3.43033775	     23.53723831	      0.41080231	      2.48717657	      0.72758599	     -6.77619625	     20.68537247	      9.14206067	     -5.29943133	     45.70138358	      0.79763962	     28.21043849	    -13.31356608	     -6.77619625	    -26.56612307	     -6.99258838	     -2.83666488	     52.85109956	      7.56349891	     65.08888435	    120.61732998	     96.34819186	     69.02012692	     -7.83107043	     66.13095258	    129.83027596	    103.23585279
      0.13333330	      7.24103708	      3.45182615	      3.27546466	      1.16231030	      0.92852459	     -0.04059243	     43.23628352	     -5.21232731	      4.87430247	     24.65714678	      0.43034840	      0.17411824	      0.08836611	     -6.80108889	     21.50932991	     10.61572771	     -5.82110349	     47.27783231	      0.82515384	     29.14763150	    -12.97527797	     -6.80108889	    -28.16062588	     -8.73171217	     -3.12721133	     54.25874573	      6.81343634	     64.61658954	    120.59759337	     95.61666466	     71.51115883	     -7.21231305	     66.66134664	    129.78440232	    102.29329278
      0.15000000	      7.38452624	      4.81261263	      3.59297708	      1.15990901	      0.91245928	     -0.03958421	     45.07515206	     -6.52223031	      6.27645734	     26.22167091	      0.45765449	     -1.20781150	     -0.60429881	     -7.00594786	     22.93314023	     11.80052862	     -6.43904904	     49.50466745	      0.86401944	     29.86226387	    -12.90395223	     -7.00594786	    -28.97250261	    -10.25811643	     -3.46528831	     56.05275406	      6.73433119	     64.03564057	    121.08926409	     90.36658217	     74.13584800	     -6.66175472	     66.66331320	    129.49196955	     95.40994730
      0.16666670	      7.46244241	      6.14735786	      3.95097721	      1.15769865	      0.90617274	     -0.03898969	     46.73668672	     -7.79762301	      7.50407899	     27.55690832	      0.48095878	     -2.18719452	     -1.03977801	     -7.01484812	     24.25462500	     13.00381051	     -7.03460991	     51.51507016	      0.89910759	     30.46996412	    -12.84295204	     -7.01484812	    -29.93690306	    -11.55695271	     -4.21655128	     57.78527698	      6.63758993	     63.82557057	    120.93247404	     90.25900107	     76.09462966	     -6.96757554	     66.23913479	    129.52509948	     95.25624639
      0.18333330	      7.61957352	      7.45340886	      4.44707903	      1.14608652	      0.90439654	     -0.04032709	     48.17929277	     -9.14684813	      8.50992106	     28.43327099	      0.49625420	     -3.53648225	     -1.06578816	     -7.02044240	     25.64623197	     14.17413162	     -7.76830573	     53.37179334	      0.93151352	     30.23913171	    -13.08234779	     -7.02044240	    -31.40309642	    -12.64501321	     -5.17166468	     60.08877601	      6.24769950	     62.89334428	    119.78547588	     90.12274220	     78.15964330	     -7.65418457	     66.02464805	    128.77192155	     95.13670767
      0.20000000	      7.75620320	      8.58616725	      4.89530195	      1.14460345	      0.90032133	     -0.04041006	     49.22292727	    -10.32119923	      9.20807855	     28.82099052	      0.50302118	     -4.58295598	     -0.66698342	     -7.02467814	     26.82303770	     15.15899043	     -8.45392409	     54.99762270	      0.95988960	     29.78953402	    -13.33496495	     -7.02467814	    -32.62739765	    -13.46659750	     -6.14594788	     62.15482396	      5.82271304	     62.42734073	    119.09820218	     90.01930231	     79.77871478	     -8.31066225	     66.50677824	    128.46293781	     95.04684698
      0.21666670	      7.89141017	     10.10734710	      5.15850154	      1.14450190	      0.89741203	     -0.03890254	     50.20908651	    -11.67569601	     10.21829203	     29.24819156	      0.51047724	     -5.05156232	     -0.30811518	     -7.04336075	     27.65321494	     16.53439690	     -9.21915822	     55.99633033	      0.97732033	     28.85589076	    -14.11963999	     -7.04336075	    -33.88464881	    -14.70687410	     -7.73996226	     63.38792596	      6.44863338	     62.72880463	    118.20672927	     89.54971158	     81.70663694	     -9.58646393	     68.24176610	    128.97514866	     94.41801602
